<?xml version="1.0" encoding="UTF-8"?>
<!DOCTYPE svg PUBLIC "-//W3C//DTD SVG 1.1//EN" "http://www.w3.org/Graphics/SVG/1.1/DTD/svg11.dtd">
<svg xmlns="http://www.w3.org/2000/svg" version="1.1" width="500px" height="500px" style="shape-rendering:geometricPrecision; text-rendering:geometricPrecision; image-rendering:optimizeQuality; fill-rule:evenodd; clip-rule:evenodd" xmlns:xlink="http://www.w3.org/1999/xlink">
<g><path style="opacity:1" fill="#e8e9eb" d="M 145.5,195.5 C 145.427,197.027 146.094,198.027 147.5,198.5C 148.793,199.842 149.626,201.509 150,203.5C 151.458,231.486 151.791,259.486 151,287.5C 150.216,293.742 147.383,298.742 142.5,302.5C 140.883,301.411 140.05,299.744 140,297.5C 139.178,300.117 138.678,302.784 138.5,305.5C 137.167,305.5 136.5,304.833 136.5,303.5C 137.038,301.883 137.371,300.216 137.5,298.5C 138.833,270.167 138.833,241.833 137.5,213.5C 138.05,207.291 135.384,202.624 129.5,199.5C 129.407,200.472 129.074,201.472 128.5,202.5C 127.508,202.672 126.842,202.338 126.5,201.5C 125.365,199.787 123.698,199.12 121.5,199.5C 100.833,199.5 80.1667,199.5 59.5,199.5C 57.9586,198.333 56.6252,197 55.5,195.5C 59.0118,190.905 63.6784,188.071 69.5,187C 90.1667,186.333 110.833,186.333 131.5,187C 137.324,188.003 141.991,190.836 145.5,195.5 Z"/></g>
<g><path style="opacity:0.204" fill="#3b4552" d="M 222.5,191.5 C 222.5,191.833 222.5,192.167 222.5,192.5C 222.829,205.344 222.495,218.011 221.5,230.5C 221.5,229.833 221.167,229.5 220.5,229.5C 218.833,228.5 217.5,227.167 216.5,225.5C 218.017,225.511 219.184,226.177 220,227.5C 220.333,225.833 220.667,224.167 221,222.5C 221.17,211.992 221.67,201.659 222.5,191.5 Z"/></g>
<g><path style="opacity:1" fill="#f0f1f2" d="M 222.5,192.5 C 225.833,192.5 229.167,192.5 232.5,192.5C 232.5,225.833 232.5,259.167 232.5,292.5C 229.833,292.5 227.167,292.5 224.5,292.5C 222.888,289.256 221.888,285.589 221.5,281.5C 220.893,281.624 220.56,281.957 220.5,282.5C 220.5,282.833 220.5,283.167 220.5,283.5C 219.833,283.5 219.5,283.833 219.5,284.5C 216.17,288.836 211.837,291.502 206.5,292.5C 201.547,293.329 196.547,293.663 191.5,293.5C 178.982,290.818 171.149,283.151 168,270.5C 167.333,262.167 167.333,253.833 168,245.5C 168.893,239.279 171.393,233.946 175.5,229.5C 177.167,228.5 178.5,227.167 179.5,225.5C 179.953,224.542 180.619,223.708 181.5,223C 191.337,217.733 201.337,217.233 211.5,221.5C 211.973,222.906 212.973,223.573 214.5,223.5C 215.5,223.833 216.167,224.5 216.5,225.5C 217.5,227.167 218.833,228.5 220.5,229.5C 221.167,229.5 221.5,229.833 221.5,230.5C 222.495,218.011 222.829,205.344 222.5,192.5 Z M 195.5,229.5 C 197.856,229.684 200.523,229.684 203.5,229.5C 205.599,230.612 207.933,231.279 210.5,231.5C 210.973,232.906 211.973,233.573 213.5,233.5C 214.833,235.167 216.167,236.833 217.5,238.5C 217.932,239.71 218.599,240.71 219.5,241.5C 220.938,248.753 221.605,256.087 221.5,263.5C 218.673,279.141 209.34,285.641 193.5,283C 185.297,280.119 180.797,274.286 180,265.5C 179.333,259.5 179.333,253.5 180,247.5C 181.226,238.016 186.393,232.016 195.5,229.5 Z"/></g>
<g><path style="opacity:0.433" fill="#7c838c" d="M 222.5,192.5 C 222.5,192.167 222.5,191.833 222.5,191.5C 226.167,191.5 229.833,191.5 233.5,191.5C 233.832,225.337 233.498,259.004 232.5,292.5C 232.5,259.167 232.5,225.833 232.5,192.5C 229.167,192.5 225.833,192.5 222.5,192.5 Z"/></g>
<g><path style="opacity:0.498" fill="#787f88" d="M 145.5,195.5 C 146.906,195.973 147.573,196.973 147.5,198.5C 146.094,198.027 145.427,197.027 145.5,195.5 Z"/></g>
<g><path style="opacity:0.831" fill="#6e757f" d="M 121.5,199.5 C 123.698,199.12 125.365,199.787 126.5,201.5C 124.447,201.598 122.78,200.931 121.5,199.5 Z"/></g>
<g><path style="opacity:0.992" fill="#b0b4ba" d="M 55.5,195.5 C 56.6252,197 57.9586,198.333 59.5,199.5C 53.3191,202.013 48.3191,206.013 44.5,211.5C 44.5912,209.302 43.9245,208.969 42.5,210.5C 42.7086,209.078 43.2086,207.745 44,206.5C 47.8541,202.693 51.6875,199.027 55.5,195.5 Z"/></g>
<g><path style="opacity:0.999" fill="#b9bcc1" d="M 137.5,213.5 C 135.207,209.242 132.207,205.576 128.5,202.5C 129.074,201.472 129.407,200.472 129.5,199.5C 135.384,202.624 138.05,207.291 137.5,213.5 Z"/></g>
<g><path style="opacity:0.996" fill="#f7f8f8" d="M 44.5,211.5 C 44.7373,212.791 44.404,213.791 43.5,214.5C 42.6677,242.664 42.1677,270.997 42,299.5C 41.5,271.169 41.3334,242.835 41.5,214.5C 41.2322,212.901 41.5655,211.568 42.5,210.5C 43.9245,208.969 44.5912,209.302 44.5,211.5 Z"/></g>
<g><path style="opacity:0.028" fill="#1b2635" d="M 137.5,213.5 C 138.833,241.833 138.833,270.167 137.5,298.5C 137.479,269.959 137.479,241.625 137.5,213.5 Z"/></g>
<g><path style="opacity:1" fill="#ebeced" d="M 99.5,219.5 C 100.568,220.434 101.901,220.768 103.5,220.5C 115.709,224.2 122.209,232.533 123,245.5C 123.768,249.92 123.602,254.253 122.5,258.5C 105.5,258.5 88.5,258.5 71.5,258.5C 71.1984,261.059 71.5318,263.393 72.5,265.5C 72.5,265.833 72.5,266.167 72.5,266.5C 72.1201,268.698 72.7868,270.365 74.5,271.5C 76.7769,277.608 81.1102,281.441 87.5,283C 97.966,285.791 106.299,282.957 112.5,274.5C 113.708,273.766 115.041,273.433 116.5,273.5C 118.612,274.44 120.612,275.606 122.5,277C 114.637,291.863 102.304,297.53 85.5,294C 82.2615,293.378 79.2615,292.212 76.5,290.5C 76.0269,289.094 75.0269,288.427 73.5,288.5C 73.0269,287.094 72.0269,286.427 70.5,286.5C 69.5,286.167 68.8333,285.5 68.5,284.5C 68.4456,282.368 67.4456,281.035 65.5,280.5C 64.0687,279.22 63.4021,277.553 63.5,275.5C 62.652,271.773 61.652,268.107 60.5,264.5C 58.6955,254.337 60.0288,244.67 64.5,235.5C 65.9063,235.027 66.573,234.027 66.5,232.5C 71.216,224.646 78.216,220.146 87.5,219C 91.5369,218.393 95.5369,218.56 99.5,219.5 Z M 106.5,233.5 C 107.263,235.368 108.263,237.035 109.5,238.5C 109.259,240.898 109.926,242.898 111.5,244.5C 111.5,245.167 111.5,245.833 111.5,246.5C 110.402,247.397 110.402,248.23 111.5,249C 99.5046,249.5 87.5046,249.667 75.5,249.5C 74.032,248.221 73.3653,246.554 73.5,244.5C 77.4059,231.703 86.0726,226.87 99.5,230C 102.03,230.891 104.363,232.058 106.5,233.5 Z"/></g>
<g><path style="opacity:0.612" fill="#5d6570" d="M 103.5,220.5 C 101.901,220.768 100.568,220.434 99.5,219.5C 99.4346,219.062 99.6012,218.728 100,218.5C 101.302,219.085 102.469,219.751 103.5,220.5 Z"/></g>
<g><path style="opacity:1" fill="#e8e9eb" d="M 278.5,293.5 C 276.485,292.076 274.152,291.41 271.5,291.5C 270.508,291.672 269.842,291.338 269.5,290.5C 269.027,289.094 268.027,288.427 266.5,288.5C 265.415,286.413 263.749,285.08 261.5,284.5C 261.573,282.973 260.906,281.973 259.5,281.5C 257.127,279.421 255.794,276.754 255.5,273.5C 253.765,265.279 253.098,256.945 253.5,248.5C 257.227,226.618 270.227,216.785 292.5,219C 306.011,221.509 314.845,229.342 319,242.5C 321.901,255.701 320.568,268.367 315,280.5C 305.343,292.328 293.176,296.661 278.5,293.5 Z M 291.5,229.5 C 293.297,230.73 295.297,231.396 297.5,231.5C 297.973,232.906 298.973,233.573 300.5,233.5C 301.5,234.833 302.5,236.167 303.5,237.5C 303.932,238.71 304.599,239.71 305.5,240.5C 309.643,252.331 309.143,263.998 304,275.5C 297.504,283.069 289.338,285.569 279.5,283C 274.094,281.094 270.094,277.594 267.5,272.5C 267.204,270.597 266.537,268.93 265.5,267.5C 264.165,258.011 264.998,248.677 268,239.5C 270.489,235.168 273.989,232.168 278.5,230.5C 282.798,229.8 287.131,229.467 291.5,229.5 Z"/></g>
<g><path style="opacity:1" fill="#e9eaec" d="M 393.5,229.5 C 393.833,230.5 394.5,231.167 395.5,231.5C 396.338,231.842 396.672,232.508 396.5,233.5C 396.443,234.609 396.11,235.609 395.5,236.5C 393.664,238.588 391.331,239.921 388.5,240.5C 388.167,239.5 387.5,238.833 386.5,238.5C 384.473,235.806 382.139,233.473 379.5,231.5C 378.365,229.787 376.698,229.12 374.5,229.5C 374.167,229.5 373.833,229.5 373.5,229.5C 372.207,228.842 370.707,228.508 369,228.5C 366.179,228.408 363.679,229.074 361.5,230.5C 355.887,232.779 351.887,236.779 349.5,242.5C 347.926,244.102 347.259,246.102 347.5,248.5C 346.887,257.064 347.887,265.398 350.5,273.5C 350.427,275.027 351.094,276.027 352.5,276.5C 360.697,283.833 370.03,285.5 380.5,281.5C 382.833,281.167 384.167,279.833 384.5,277.5C 386.087,274.658 387.92,271.992 390,269.5C 392.317,270.826 394.651,272.16 397,273.5C 395.106,284.892 388.273,291.558 376.5,293.5C 369.378,293.825 362.378,293.159 355.5,291.5C 344.241,286.908 337.908,278.575 336.5,266.5C 336.5,259.833 336.5,253.167 336.5,246.5C 340.117,228.555 351.117,219.222 369.5,218.5C 377.159,218.663 384.159,220.829 390.5,225C 392.141,226.129 393.141,227.629 393.5,229.5 Z"/></g>
<g><path style="opacity:1" fill="#e6e8e9" d="M 457.5,227.5 C 457.557,228.609 457.89,229.609 458.5,230.5C 457.167,232.5 455.5,234.167 453.5,235.5C 451.167,234.167 448.833,232.833 446.5,231.5C 438.429,228.671 430.429,228.838 422.5,232C 421.915,233.302 421.249,234.469 420.5,235.5C 419.254,238.293 419.587,240.96 421.5,243.5C 423.465,245.488 425.798,246.988 428.5,248C 437.474,249.742 446.141,252.409 454.5,256C 460.655,261.487 462.988,268.32 461.5,276.5C 460.463,277.93 459.796,279.597 459.5,281.5C 456.464,289.038 450.797,293.205 442.5,294C 436.984,294.817 431.65,294.651 426.5,293.5C 424.485,292.076 422.152,291.41 419.5,291.5C 418.391,291.443 417.391,291.11 416.5,290.5C 415.738,288.738 414.404,287.738 412.5,287.5C 404.306,282.265 404.639,277.599 413.5,273.5C 423.179,284.17 434.513,286.337 447.5,280C 451.755,274.688 451.421,269.688 446.5,265C 443.691,263.907 441.024,262.74 438.5,261.5C 436.485,260.076 434.152,259.41 431.5,259.5C 431.167,259.5 430.833,259.5 430.5,259.5C 427.495,257.723 424.162,256.723 420.5,256.5C 420.027,255.094 419.027,254.427 417.5,254.5C 410.909,249.976 408.076,243.642 409,235.5C 409.24,233.148 410.073,231.148 411.5,229.5C 412.906,229.027 413.573,228.027 413.5,226.5C 415.749,225.92 417.415,224.587 418.5,222.5C 418.842,221.662 419.508,221.328 420.5,221.5C 423.152,221.59 425.485,220.924 427.5,219.5C 434.922,218.098 442.256,218.598 449.5,221C 452.787,222.467 455.454,224.634 457.5,227.5 Z"/></g>
<g><path style="opacity:0.851" fill="#80878f" d="M 427.5,219.5 C 425.485,220.924 423.152,221.59 420.5,221.5C 422.515,220.076 424.848,219.41 427.5,219.5 Z"/></g>
<g><path style="opacity:0.004" fill="#2b3644" d="M 211.5,221.5 C 213.027,221.427 214.027,222.094 214.5,223.5C 212.973,223.573 211.973,222.906 211.5,221.5 Z"/></g>
<g><path style="opacity:0.914" fill="#979ca3" d="M 418.5,222.5 C 417.415,224.587 415.749,225.92 413.5,226.5C 414.585,224.413 416.251,223.08 418.5,222.5 Z"/></g>
<g><path style="opacity:0.69" fill="#7c838c" d="M 179.5,225.5 C 178.5,227.167 177.167,228.5 175.5,229.5C 175.833,227.167 177.167,225.833 179.5,225.5 Z"/></g>
<g><path style="opacity:0.376" fill="#737a83" d="M 203.5,229.5 C 200.523,229.684 197.856,229.684 195.5,229.5C 198.167,228.167 200.833,228.167 203.5,229.5 Z"/></g>
<g><path style="opacity:0.361" fill="#6a717b" d="M 291.5,229.5 C 287.131,229.467 282.798,229.8 278.5,230.5C 280.848,229.048 283.514,228.382 286.5,228.5C 288.369,228.507 290.036,228.84 291.5,229.5 Z"/></g>
<g><path style="opacity:0.396" fill="#69707b" d="M 373.5,229.5 C 369.466,229.505 365.466,229.838 361.5,230.5C 363.679,229.074 366.179,228.408 369,228.5C 370.707,228.508 372.207,228.842 373.5,229.5 Z"/></g>
<g><path style="opacity:0.502" fill="#798089" d="M 413.5,226.5 C 413.573,228.027 412.906,229.027 411.5,229.5C 411.427,227.973 412.094,226.973 413.5,226.5 Z"/></g>
<g><path style="opacity:0.788" fill="#737a84" d="M 374.5,229.5 C 376.698,229.12 378.365,229.787 379.5,231.5C 377.597,231.204 375.93,230.537 374.5,229.5 Z"/></g>
<g><path style="opacity:0.004" fill="#353e4c" d="M 393.5,229.5 C 394.833,229.5 395.5,230.167 395.5,231.5C 394.5,231.167 393.833,230.5 393.5,229.5 Z"/></g>
<g><path style="opacity:0.122" fill="#49525f" d="M 457.5,227.5 C 459.382,228.221 459.715,229.221 458.5,230.5C 457.89,229.609 457.557,228.609 457.5,227.5 Z"/></g>
<g><path style="opacity:0.773" fill="#606772" d="M 446.5,231.5 C 448.833,232.833 451.167,234.167 453.5,235.5C 450.419,236.194 448.086,234.861 446.5,231.5 Z"/></g>
<g><path style="opacity:0.208" fill="#444e5a" d="M 210.5,231.5 C 212.027,231.427 213.027,232.094 213.5,233.5C 211.973,233.573 210.973,232.906 210.5,231.5 Z"/></g>
<g><path style="opacity:0.376" fill="#616974" d="M 297.5,231.5 C 299.027,231.427 300.027,232.094 300.5,233.5C 298.973,233.573 297.973,232.906 297.5,231.5 Z"/></g>
<g><path style="opacity:0.949" fill="#737a84" d="M 106.5,233.5 C 108.741,234.3 109.741,235.966 109.5,238.5C 108.263,237.035 107.263,235.368 106.5,233.5 Z"/></g>
<g><path style="opacity:0.337" fill="#606772" d="M 66.5,232.5 C 66.573,234.027 65.9063,235.027 64.5,235.5C 64.427,233.973 65.0937,232.973 66.5,232.5 Z"/></g>
<g><path style="opacity:0.008" fill="#283341" d="M 396.5,233.5 C 397.885,234.947 397.552,235.947 395.5,236.5C 396.11,235.609 396.443,234.609 396.5,233.5 Z"/></g>
<g><path style="opacity:0.894" fill="#798089" d="M 303.5,237.5 C 305.048,237.821 305.715,238.821 305.5,240.5C 304.599,239.71 303.932,238.71 303.5,237.5 Z"/></g>
<g><path style="opacity:0.875" fill="#787e87" d="M 217.5,238.5 C 219.048,238.821 219.715,239.821 219.5,241.5C 218.599,240.71 217.932,239.71 217.5,238.5 Z"/></g>
<g><path style="opacity:0.004" fill="#2c3745" d="M 386.5,238.5 C 387.5,238.833 388.167,239.5 388.5,240.5C 387.167,240.5 386.5,239.833 386.5,238.5 Z"/></g>
<g><path style="opacity:0.004" fill="#3a4451" d="M 420.5,235.5 C 420.627,237.94 420.96,240.607 421.5,243.5C 419.587,240.96 419.254,238.293 420.5,235.5 Z"/></g>
<g><path style="opacity:0.012" fill="#38424f" d="M 109.5,238.5 C 111.074,240.102 111.741,242.102 111.5,244.5C 109.926,242.898 109.259,240.898 109.5,238.5 Z"/></g>
<g><path style="opacity:0.51" fill="#656c76" d="M 349.5,242.5 C 349.405,244.786 348.738,246.786 347.5,248.5C 347.259,246.102 347.926,244.102 349.5,242.5 Z"/></g>
<g><path style="opacity:0.024" fill="#1a2635" d="M 73.5,244.5 C 73.3653,246.554 74.032,248.221 75.5,249.5C 74.5,249.5 73.5,249.5 72.5,249.5C 72.5,248.5 72.5,247.5 72.5,246.5C 72.3284,245.508 72.6618,244.842 73.5,244.5 Z"/></g>
<g><path style="opacity:0.326" fill="#676f79" d="M 72.5,246.5 C 72.5,247.5 72.5,248.5 72.5,249.5C 73.5,249.5 74.5,249.5 75.5,249.5C 87.5046,249.667 99.5046,249.5 111.5,249C 110.402,248.23 110.402,247.397 111.5,246.5C 112.434,247.568 112.768,248.901 112.5,250.5C 98.8333,250.5 85.1667,250.5 71.5,250.5C 71.2322,248.901 71.5655,247.568 72.5,246.5 Z"/></g>
<g><path style="opacity:0.214" fill="#525a66" d="M 219.5,241.5 C 220.776,243.562 221.61,245.896 222,248.5C 222.816,253.684 222.65,258.684 221.5,263.5C 221.605,256.087 220.938,248.753 219.5,241.5 Z"/></g>
<g><path style="opacity:0.375" fill="#49525e" d="M 253.5,248.5 C 253.098,256.945 253.765,265.279 255.5,273.5C 254.073,271.852 253.24,269.852 253,267.5C 252.18,260.986 252.347,254.653 253.5,248.5 Z"/></g>
<g><path style="opacity:0.861" fill="#979ca4" d="M 336.5,246.5 C 336.5,253.167 336.5,259.833 336.5,266.5C 335.678,263.335 335.011,260.002 334.5,256.5C 335.011,252.998 335.678,249.665 336.5,246.5 Z"/></g>
<g><path style="opacity:0.208" fill="#4d5662" d="M 417.5,254.5 C 419.027,254.427 420.027,255.094 420.5,256.5C 418.973,256.573 417.973,255.906 417.5,254.5 Z"/></g>
<g><path style="opacity:0.855" fill="#767d86" d="M 420.5,256.5 C 424.162,256.723 427.495,257.723 430.5,259.5C 426.838,259.277 423.505,258.277 420.5,256.5 Z"/></g>
<g><path style="opacity:0.537" fill="#888d95" d="M 122.5,258.5 C 106.672,259.331 90.6719,259.831 74.5,260C 72.8078,261.401 72.1412,263.234 72.5,265.5C 71.5318,263.393 71.1984,261.059 71.5,258.5C 88.5,258.5 105.5,258.5 122.5,258.5 Z"/></g>
<g><path style="opacity:0.506" fill="#686f7a" d="M 431.5,259.5 C 434.152,259.41 436.485,260.076 438.5,261.5C 435.848,261.59 433.515,260.924 431.5,259.5 Z"/></g>
<g><path style="opacity:0.773" fill="#6f7680" d="M 72.5,266.5 C 73.5375,267.93 74.2041,269.597 74.5,271.5C 72.7868,270.365 72.1201,268.698 72.5,266.5 Z"/></g>
<g><path style="opacity:0.843" fill="#79808a" d="M 265.5,267.5 C 266.537,268.93 267.204,270.597 267.5,272.5C 265.787,271.365 265.12,269.698 265.5,267.5 Z"/></g>
<g><path style="opacity:0.014" fill="#333d4b" d="M 60.5,264.5 C 61.652,268.107 62.652,271.773 63.5,275.5C 61.3507,272.815 60.0174,269.648 59.5,266C 59.5699,265.235 59.9033,264.735 60.5,264.5 Z"/></g>
<g><path style="opacity:0.455" fill="#515965" d="M 116.5,273.5 C 115.041,273.433 113.708,273.766 112.5,274.5C 113.103,270.88 114.436,270.547 116.5,273.5 Z"/></g>
<g><path style="opacity:0.486" fill="#747a84" d="M 350.5,273.5 C 351.906,273.973 352.573,274.973 352.5,276.5C 351.094,276.027 350.427,275.027 350.5,273.5 Z"/></g>
<g><path style="opacity:0.008" fill="#333d4b" d="M 461.5,276.5 C 461.88,278.698 461.213,280.365 459.5,281.5C 459.796,279.597 460.463,277.93 461.5,276.5 Z"/></g>
<g><path style="opacity:0.82" fill="#979ca3" d="M 384.5,277.5 C 384.167,279.833 382.833,281.167 380.5,281.5C 381.5,279.833 382.833,278.5 384.5,277.5 Z"/></g>
<g><path style="opacity:0.922" fill="#6f7680" d="M 65.5,280.5 C 67.4456,281.035 68.4456,282.368 68.5,284.5C 67.0256,283.564 66.0256,282.23 65.5,280.5 Z"/></g>
<g><path style="opacity:0.217" fill="#37414e" d="M 220.5,282.5 C 220.56,281.957 220.893,281.624 221.5,281.5C 221.888,285.589 222.888,289.256 224.5,292.5C 223.614,293.776 222.614,293.776 221.5,292.5C 220.92,289.689 220.254,287.023 219.5,284.5C 219.5,283.833 219.833,283.5 220.5,283.5C 221.833,283.167 221.833,282.833 220.5,282.5 Z"/></g>
<g><path style="opacity:0.004" fill="#363f4d" d="M 259.5,281.5 C 260.906,281.973 261.573,282.973 261.5,284.5C 260.094,284.027 259.427,283.027 259.5,281.5 Z"/></g>
<g><path style="opacity:0.647" fill="#5b636e" d="M 261.5,284.5 C 263.749,285.08 265.415,286.413 266.5,288.5C 264.251,287.92 262.585,286.587 261.5,284.5 Z"/></g>
<g><path style="opacity:0.388" fill="#5c646f" d="M 70.5,286.5 C 72.0269,286.427 73.0269,287.094 73.5,288.5C 71.9731,288.573 70.9731,287.906 70.5,286.5 Z"/></g>
<g><path style="opacity:0.514" fill="#676f79" d="M 412.5,287.5 C 414.404,287.738 415.738,288.738 416.5,290.5C 414.596,290.262 413.262,289.262 412.5,287.5 Z"/></g>
<g><path style="opacity:0.294" fill="#5b636e" d="M 73.5,288.5 C 75.0269,288.427 76.0269,289.094 76.5,290.5C 74.9731,290.573 73.9731,289.906 73.5,288.5 Z"/></g>
<g><path style="opacity:0.204" fill="#4a525f" d="M 266.5,288.5 C 268.027,288.427 269.027,289.094 269.5,290.5C 267.973,290.573 266.973,289.906 266.5,288.5 Z"/></g>
<g><path style="opacity:0.741" fill="#676e79" d="M 271.5,291.5 C 274.152,291.41 276.485,292.076 278.5,293.5C 275.848,293.59 273.515,292.924 271.5,291.5 Z"/></g>
<g><path style="opacity:0.733" fill="#767d86" d="M 355.5,291.5 C 362.378,293.159 369.378,293.825 376.5,293.5C 371.684,294.65 366.684,294.816 361.5,294C 359.277,293.434 357.277,292.6 355.5,291.5 Z"/></g>
<g><path style="opacity:0.569" fill="#787e88" d="M 419.5,291.5 C 422.152,291.41 424.485,292.076 426.5,293.5C 423.848,293.59 421.515,292.924 419.5,291.5 Z"/></g>
<g><path style="opacity:0.306" fill="#47505c" d="M 206.5,292.5 C 206.082,293.222 205.416,293.722 204.5,294C 199.98,294.814 195.646,294.647 191.5,293.5C 196.547,293.663 201.547,293.329 206.5,292.5 Z"/></g>
<g><path style="opacity:0.992" fill="#b6babf" d="M 142.5,302.5 C 141.564,303.974 140.23,304.974 138.5,305.5C 138.678,302.784 139.178,300.117 140,297.5C 140.05,299.744 140.883,301.411 142.5,302.5 Z"/></g>
<g><path style="opacity:0.998" fill="#aaafb4" d="M 136.5,303.5 C 136.5,304.833 137.167,305.5 138.5,305.5C 136.727,308.06 134.727,310.393 132.5,312.5C 132.5,311.167 131.833,310.5 130.5,310.5C 132.529,308.142 134.529,305.808 136.5,303.5 Z"/></g>
<g><path style="opacity:0.998" fill="#898f97" d="M 41.5,214.5 C 41.3334,242.835 41.5,271.169 42,299.5C 42.1677,270.997 42.6677,242.664 43.5,214.5C 43.3334,242.835 43.5,271.169 44,299.5C 45.6287,304.45 48.462,308.45 52.5,311.5C 51.375,312.348 51.375,313.348 52.5,314.5C 46.699,311.525 42.8657,306.858 41,300.5C 40.1696,271.664 40.3362,242.997 41.5,214.5 Z"/></g>
<g><path style="opacity:0.996" fill="#b4b8bd" d="M 130.5,310.5 C 131.833,310.5 132.5,311.167 132.5,312.5C 129.569,314.797 126.236,316.297 122.5,317C 101.167,317.667 79.8333,317.667 58.5,317C 56.1484,316.76 54.1484,315.927 52.5,314.5C 51.375,313.348 51.375,312.348 52.5,311.5C 54.7513,312.695 57.0846,313.695 59.5,314.5C 79.9959,315.663 100.663,315.829 121.5,315C 122.416,314.722 123.082,314.222 123.5,313.5C 124.167,313.5 124.833,313.5 125.5,313.5C 127.027,313.573 128.027,312.906 128.5,311.5C 129.167,311.167 129.833,310.833 130.5,310.5 Z"/></g>
<g><path style="opacity:0.635" fill="#686f7a" d="M 128.5,311.5 C 128.027,312.906 127.027,313.573 125.5,313.5C 125.973,312.094 126.973,311.427 128.5,311.5 Z"/></g>
<g><path style="opacity:0.497" fill="#878d95" d="M 123.5,313.5 C 123.082,314.222 122.416,314.722 121.5,315C 100.663,315.829 79.9959,315.663 59.5,314.5C 80.8599,314.788 102.193,314.455 123.5,313.5 Z"/></g>
</svg>
