<?xml version="1.0" encoding="UTF-8"?>
<!DOCTYPE svg PUBLIC "-//W3C//DTD SVG 1.1//EN" "http://www.w3.org/Graphics/SVG/1.1/DTD/svg11.dtd">
<svg xmlns="http://www.w3.org/2000/svg" version="1.1" width="500px" height="500px" style="shape-rendering:geometricPrecision; text-rendering:geometricPrecision; image-rendering:optimizeQuality; fill-rule:evenodd; clip-rule:evenodd" xmlns:xlink="http://www.w3.org/1999/xlink">
<g><path style="opacity:0.913" fill="#828282" d="M 148.5,200.5 C 147.075,198.969 146.409,199.302 146.5,201.5C 142.62,195.134 136.953,191.301 129.5,190C 110.167,189.333 90.8333,189.333 71.5,190C 65.8503,190.483 61.517,192.983 58.5,197.5C 58.1667,197.5 57.8333,197.5 57.5,197.5C 57.5,196.167 56.8333,195.5 55.5,195.5C 59.2584,190.617 64.2584,187.784 70.5,187C 90.5,186.333 110.5,186.333 130.5,187C 139.266,187.946 145.266,192.446 148.5,200.5 Z"/></g>
<g><path style="opacity:0.18" fill="#dedede" d="M 222.5,191.5 C 222.5,191.833 222.5,192.167 222.5,192.5C 222.832,205.184 222.499,217.851 221.5,230.5C 220.893,230.376 220.56,230.043 220.5,229.5C 221.167,216.833 221.833,204.167 222.5,191.5 Z"/></g>
<g><path style="opacity:0.999" fill="#545454" d="M 222.5,192.5 C 225.833,192.5 229.167,192.5 232.5,192.5C 232.5,225.833 232.5,259.167 232.5,292.5C 229.167,292.5 225.833,292.5 222.5,292.5C 222.823,288.774 222.489,285.107 221.5,281.5C 220.893,281.624 220.56,281.957 220.5,282.5C 219.797,284.716 218.464,286.549 216.5,288C 201.049,297.839 186.883,296.339 174,283.5C 167.844,271.56 165.844,258.893 168,245.5C 172.261,225.74 184.427,217.073 204.5,219.5C 211.46,220.309 216.793,223.643 220.5,229.5C 220.56,230.043 220.893,230.376 221.5,230.5C 222.499,217.851 222.832,205.184 222.5,192.5 Z M 217.5,275.5 C 215.167,277.167 213.167,279.167 211.5,281.5C 189.795,287.471 179.128,279.138 179.5,256.5C 178.57,235.583 188.237,227.083 208.5,231C 218.229,236.622 222.562,245.122 221.5,256.5C 221.889,263.267 220.556,269.601 217.5,275.5 Z"/></g>
<g><path style="opacity:0.412" fill="#aeaeae" d="M 222.5,192.5 C 222.5,192.167 222.5,191.833 222.5,191.5C 226.167,191.5 229.833,191.5 233.5,191.5C 233.832,225.337 233.498,259.004 232.5,292.5C 232.5,259.167 232.5,225.833 232.5,192.5C 229.167,192.5 225.833,192.5 222.5,192.5 Z"/></g>
<g><path style="opacity:0.977" fill="#516080" d="M 123.5,197.5 C 123.5,197.833 123.5,198.167 123.5,198.5C 101.5,198.5 79.5,198.5 57.5,198.5C 57.5,198.167 57.5,197.833 57.5,197.5C 57.8333,197.5 58.1667,197.5 58.5,197.5C 80.1667,196.167 101.833,196.167 123.5,197.5 Z"/></g>
<g><path style="opacity:1" fill="#286dc4" d="M 57.5,198.5 C 79.5,198.5 101.5,198.5 123.5,198.5C 131.167,201.5 136.5,206.833 139.5,214.5C 139.667,242.502 139.5,270.502 139,298.5C 138.495,300.518 137.995,302.518 137.5,304.5C 134.122,309.711 129.455,313.211 123.5,315C 101.167,315.667 78.8333,315.667 56.5,315C 53.1381,313.657 50.1381,311.824 47.5,309.5C 45.1528,306.139 43.3194,302.472 42,298.5C 41.3333,270.833 41.3333,243.167 42,215.5C 44.2261,207.109 49.3927,201.442 57.5,198.5 Z M 89.5,219.5 C 114.729,220.405 125.396,233.405 121.5,258.5C 104.833,258.5 88.1667,258.5 71.5,258.5C 71.2787,278.902 81.2787,287.402 101.5,284C 107.477,282.522 111.81,279.022 114.5,273.5C 117.735,274.552 119.569,276.552 120,279.5C 114.141,289.1 105.475,293.767 94,293.5C 70.9868,291.811 59.8201,279.311 60.5,256C 60.5948,235.881 70.2615,223.714 89.5,219.5 Z"/></g>
<g><path style="opacity:0.965" fill="#404d60" d="M 123.5,197.5 C 132.824,199.49 138.49,205.157 140.5,214.5C 140.167,214.5 139.833,214.5 139.5,214.5C 136.5,206.833 131.167,201.5 123.5,198.5C 123.5,198.167 123.5,197.833 123.5,197.5 Z"/></g>
<g><path style="opacity:0.895" fill="#575757" d="M 148.5,200.5 C 149.222,200.918 149.722,201.584 150,202.5C 150.667,231.833 150.667,261.167 150,290.5C 149.79,292.058 149.29,293.391 148.5,294.5C 147.833,294.167 147.167,293.833 146.5,293.5C 146.998,290.513 147.498,287.513 148,284.5C 148.667,259.5 148.667,234.5 148,209.5C 147.605,206.793 147.105,204.127 146.5,201.5C 146.409,199.302 147.075,198.969 148.5,200.5 Z"/></g>
<g><path style="opacity:0.796" fill="#49586c" d="M 55.5,195.5 C 56.8333,195.5 57.5,196.167 57.5,197.5C 57.5,197.833 57.5,198.167 57.5,198.5C 49.3927,201.442 44.2261,207.109 42,215.5C 41.3333,243.167 41.3333,270.833 42,298.5C 43.3194,302.472 45.1528,306.139 47.5,309.5C 47.5,310.167 47.5,310.833 47.5,311.5C 44.3389,308.525 42.1723,304.858 41,300.5C 40.3333,271.5 40.3333,242.5 41,213.5C 41.7246,211.051 42.7246,208.717 44,206.5C 47.8541,202.693 51.6875,199.027 55.5,195.5 Z"/></g>
<g><path style="opacity:0.987" fill="#475161" d="M 139.5,214.5 C 139.833,214.5 140.167,214.5 140.5,214.5C 141.825,242.821 141.825,271.154 140.5,299.5C 139.699,301.042 139.366,302.708 139.5,304.5C 139.167,304.5 138.833,304.5 138.5,304.5C 138.167,304.5 137.833,304.5 137.5,304.5C 137.995,302.518 138.495,300.518 139,298.5C 139.5,270.502 139.667,242.502 139.5,214.5 Z"/></g>
<g><path style="opacity:0.999" fill="#595959" d="M 282.5,218.5 C 304.698,217.868 317.198,228.535 320,250.5C 322.238,265.79 317.738,278.623 306.5,289C 291.172,297.055 276.505,296.055 262.5,286C 253.175,273.235 250.342,259.069 254,243.5C 258.135,228.855 267.635,220.521 282.5,218.5 Z M 280.5,229.5 C 299.524,228.187 308.857,237.187 308.5,256.5C 308.231,278.282 297.565,286.782 276.5,282C 267.666,275.918 263.666,267.418 264.5,256.5C 263.572,243.466 268.905,234.466 280.5,229.5 Z"/></g>
<g><path style="opacity:0.999" fill="#5a5a5a" d="M 365.5,218.5 C 380.033,216.93 390.7,222.43 397.5,235C 394.968,237.094 392.301,238.927 389.5,240.5C 386.058,237.236 382.391,234.069 378.5,231C 362.21,226.39 352.043,232.223 348,248.5C 345.475,260.577 348.309,271.077 356.5,280C 371.14,287.341 382.307,283.841 390,269.5C 392.317,270.826 394.651,272.16 397,273.5C 395.519,283.66 389.686,290.16 379.5,293C 358.71,297.691 344.543,290.191 337,270.5C 333.731,256.818 335.397,243.818 342,231.5C 348.122,223.86 355.955,219.527 365.5,218.5 Z"/></g>
<g><path style="opacity:0.999" fill="#5b5b5b" d="M 430.5,218.5 C 437.719,218.37 444.719,219.537 451.5,222C 454.833,224 457.5,226.667 459.5,230C 457.317,232.35 454.984,234.517 452.5,236.5C 445.09,229.314 436.423,227.147 426.5,230C 419.302,234.394 418.635,239.727 424.5,246C 434.608,249.027 444.608,252.36 454.5,256C 462.472,264.914 463.638,274.748 458,285.5C 449.586,292.989 439.752,295.822 428.5,294C 418.671,293.266 411.338,288.766 406.5,280.5C 410.152,271.991 414.485,271.491 419.5,279C 426.222,283.25 433.555,284.583 441.5,283C 449.168,280.327 451.668,275.16 449,267.5C 448.167,266.667 447.333,265.833 446.5,265C 436.784,261.821 427.118,258.487 417.5,255C 408.314,247.408 406.481,238.242 412,227.5C 417.166,222.287 423.333,219.287 430.5,218.5 Z"/></g>
<g><path style="opacity:1" fill="#3270c6" d="M 111.5,243.5 C 111.5,245.5 111.5,247.5 111.5,249.5C 98.5,249.5 85.5,249.5 72.5,249.5C 72.5,248.167 72.5,246.833 72.5,245.5C 74.4388,234.067 81.2722,228.067 93,227.5C 104.045,227.388 110.212,232.721 111.5,243.5 Z"/></g>
<g><path style="opacity:0.685" fill="#77a3da" d="M 111.5,243.5 C 112.468,245.607 112.802,247.941 112.5,250.5C 98.8333,250.5 85.1667,250.5 71.5,250.5C 71.2155,248.585 71.5489,246.919 72.5,245.5C 72.5,246.833 72.5,248.167 72.5,249.5C 85.5,249.5 98.5,249.5 111.5,249.5C 111.5,247.5 111.5,245.5 111.5,243.5 Z"/></g>
<g><path style="opacity:0.627" fill="#a7a7a7" d="M 217.5,275.5 C 216.5,278.5 214.5,280.5 211.5,281.5C 213.167,279.167 215.167,277.167 217.5,275.5 Z"/></g>
<g><path style="opacity:0.182" fill="#d4d4d4" d="M 220.5,282.5 C 220.56,281.957 220.893,281.624 221.5,281.5C 222.489,285.107 222.823,288.774 222.5,292.5C 221.833,289.167 221.167,285.833 220.5,282.5 Z"/></g>
<g><path style="opacity:0.776" fill="#7f7f80" d="M 146.5,293.5 C 147.167,293.833 147.833,294.167 148.5,294.5C 146.884,299.057 143.884,302.39 139.5,304.5C 139.366,302.708 139.699,301.042 140.5,299.5C 142.861,297.806 144.861,295.806 146.5,293.5 Z"/></g>
<g><path style="opacity:1" fill="#264471" d="M 137.5,304.5 C 137.833,304.5 138.167,304.5 138.5,304.5C 135.916,310.914 131.249,315.08 124.5,317C 101.833,317.667 79.1667,317.667 56.5,317C 53.1381,315.657 50.1381,313.824 47.5,311.5C 47.5,310.833 47.5,310.167 47.5,309.5C 50.1381,311.824 53.1381,313.657 56.5,315C 78.8333,315.667 101.167,315.667 123.5,315C 129.455,313.211 134.122,309.711 137.5,304.5 Z"/></g>
</svg>
